<mxfile host="app.diagrams.net" modified="2024-03-24T08:49:26.494Z" agent="Mozilla/5.0 (Windows NT 10.0; Win64; x64) AppleWebKit/537.36 (KHTML, like Gecko) Chrome/122.0.0.0 Safari/537.36 Edg/122.0.0.0" etag="eC5dMPBxkgKiiRWLSJvs" version="24.1.0" type="google">
  <diagram name="Page-1" id="2COKxuoeFehiwt_Xjwyw">
    <mxGraphModel grid="1" page="1" gridSize="10" guides="1" tooltips="1" connect="1" arrows="1" fold="1" pageScale="1" pageWidth="850" pageHeight="1100" math="0" shadow="0">
      <root>
        <mxCell id="0" />
        <mxCell id="1" parent="0" />
        <mxCell id="DVC3D0L8lzgn9RZK1v0j-1" value="" style="rounded=0;whiteSpace=wrap;html=1;" vertex="1" parent="1">
          <mxGeometry x="70" y="139" width="740" height="480" as="geometry" />
        </mxCell>
        <mxCell id="DVC3D0L8lzgn9RZK1v0j-2" value="Frontend&lt;br&gt;&lt;span style=&quot;font-weight: normal;&quot;&gt;ReactJS Application&lt;/span&gt;" style="text;html=1;align=center;verticalAlign=middle;whiteSpace=wrap;rounded=0;fontStyle=1" vertex="1" parent="1">
          <mxGeometry x="370" y="142" width="140" height="30" as="geometry" />
        </mxCell>
        <mxCell id="DVC3D0L8lzgn9RZK1v0j-3" value="" style="rounded=0;whiteSpace=wrap;html=1;" vertex="1" parent="1">
          <mxGeometry x="100" y="190" width="260" height="400" as="geometry" />
        </mxCell>
        <mxCell id="DVC3D0L8lzgn9RZK1v0j-4" value="" style="rounded=0;whiteSpace=wrap;html=1;" vertex="1" parent="1">
          <mxGeometry x="520" y="190" width="260" height="400" as="geometry" />
        </mxCell>
        <mxCell id="DVC3D0L8lzgn9RZK1v0j-5" value="App Component" style="text;html=1;align=center;verticalAlign=middle;whiteSpace=wrap;rounded=0;" vertex="1" parent="1">
          <mxGeometry x="181" y="186" width="90" height="30" as="geometry" />
        </mxCell>
        <mxCell id="DVC3D0L8lzgn9RZK1v0j-6" value="" style="rounded=0;whiteSpace=wrap;html=1;" vertex="1" parent="1">
          <mxGeometry x="110" y="216" width="240" height="364" as="geometry" />
        </mxCell>
        <mxCell id="DVC3D0L8lzgn9RZK1v0j-7" value="Router" style="text;html=1;align=center;verticalAlign=middle;whiteSpace=wrap;rounded=0;" vertex="1" parent="1">
          <mxGeometry x="181" y="212" width="90" height="30" as="geometry" />
        </mxCell>
        <mxCell id="DVC3D0L8lzgn9RZK1v0j-8" value="" style="rounded=0;whiteSpace=wrap;html=1;" vertex="1" parent="1">
          <mxGeometry x="120" y="240" width="220" height="330" as="geometry" />
        </mxCell>
        <mxCell id="DVC3D0L8lzgn9RZK1v0j-9" value="Component" style="text;html=1;align=center;verticalAlign=middle;whiteSpace=wrap;rounded=0;" vertex="1" parent="1">
          <mxGeometry x="181" y="238" width="90" height="30" as="geometry" />
        </mxCell>
        <mxCell id="DVC3D0L8lzgn9RZK1v0j-15" value="" style="edgeStyle=orthogonalEdgeStyle;rounded=0;orthogonalLoop=1;jettySize=auto;html=1;entryX=0;entryY=0.25;entryDx=0;entryDy=0;" edge="1" parent="1" target="DVC3D0L8lzgn9RZK1v0j-12">
          <mxGeometry relative="1" as="geometry">
            <mxPoint x="190" y="340" as="sourcePoint" />
            <mxPoint x="200" y="415" as="targetPoint" />
            <Array as="points">
              <mxPoint x="180" y="340" />
              <mxPoint x="180" y="405" />
            </Array>
            <mxPoint as="offset" />
          </mxGeometry>
        </mxCell>
        <mxCell id="DVC3D0L8lzgn9RZK1v0j-10" value="Presentation Component" style="rounded=0;whiteSpace=wrap;html=1;" vertex="1" parent="1">
          <mxGeometry x="166" y="280" width="120" height="60" as="geometry" />
        </mxCell>
        <mxCell id="DVC3D0L8lzgn9RZK1v0j-11" value="Zustand" style="text;html=1;align=center;verticalAlign=middle;whiteSpace=wrap;rounded=0;" vertex="1" parent="1">
          <mxGeometry x="605" y="190" width="90" height="30" as="geometry" />
        </mxCell>
        <mxCell id="DVC3D0L8lzgn9RZK1v0j-17" style="edgeStyle=orthogonalEdgeStyle;rounded=0;orthogonalLoop=1;jettySize=auto;html=1;exitX=0.005;exitY=0.641;exitDx=0;exitDy=0;exitPerimeter=0;" edge="1" parent="1" source="DVC3D0L8lzgn9RZK1v0j-12" target="DVC3D0L8lzgn9RZK1v0j-16">
          <mxGeometry relative="1" as="geometry">
            <mxPoint x="199.51999999999998" y="421.76" as="sourcePoint" />
            <mxPoint x="190" y="500" as="targetPoint" />
            <Array as="points">
              <mxPoint x="211" y="421" />
              <mxPoint x="211" y="422" />
              <mxPoint x="180" y="422" />
            </Array>
          </mxGeometry>
        </mxCell>
        <mxCell id="DVC3D0L8lzgn9RZK1v0j-23" style="edgeStyle=orthogonalEdgeStyle;rounded=0;orthogonalLoop=1;jettySize=auto;html=1;exitX=1;exitY=0.25;exitDx=0;exitDy=0;" edge="1" parent="1" source="DVC3D0L8lzgn9RZK1v0j-12" target="DVC3D0L8lzgn9RZK1v0j-18">
          <mxGeometry relative="1" as="geometry">
            <mxPoint x="286" y="406" as="sourcePoint" />
            <mxPoint x="549" y="269.9999999999999" as="targetPoint" />
            <Array as="points">
              <mxPoint x="330" y="406" />
              <mxPoint x="430" y="406" />
              <mxPoint x="430" y="260" />
            </Array>
          </mxGeometry>
        </mxCell>
        <mxCell id="DVC3D0L8lzgn9RZK1v0j-30" style="edgeStyle=orthogonalEdgeStyle;rounded=0;orthogonalLoop=1;jettySize=auto;html=1;exitX=0.75;exitY=0;exitDx=0;exitDy=0;entryX=0.75;entryY=1;entryDx=0;entryDy=0;dashed=1;" edge="1" parent="1">
          <mxGeometry relative="1" as="geometry">
            <mxPoint x="229.8" y="395" as="sourcePoint" />
            <mxPoint x="229.8" y="340" as="targetPoint" />
          </mxGeometry>
        </mxCell>
        <mxCell id="DVC3D0L8lzgn9RZK1v0j-45" style="edgeStyle=orthogonalEdgeStyle;rounded=0;orthogonalLoop=1;jettySize=auto;html=1;exitX=0.75;exitY=1;exitDx=0;exitDy=0;entryX=0.75;entryY=0;entryDx=0;entryDy=0;dashed=1;" edge="1" parent="1">
          <mxGeometry relative="1" as="geometry">
            <mxPoint x="229.8" y="435" as="sourcePoint" />
            <mxPoint x="229.8" y="500" as="targetPoint" />
            <Array as="points">
              <mxPoint x="229.8" y="460" />
              <mxPoint x="229.8" y="460" />
            </Array>
          </mxGeometry>
        </mxCell>
        <mxCell id="DVC3D0L8lzgn9RZK1v0j-47" style="edgeStyle=orthogonalEdgeStyle;rounded=0;orthogonalLoop=1;jettySize=auto;html=1;" edge="1" parent="1">
          <mxGeometry relative="1" as="geometry">
            <mxPoint x="280" y="432" as="sourcePoint" />
            <mxPoint x="280" y="667" as="targetPoint" />
            <Array as="points">
              <mxPoint x="280" y="432" />
            </Array>
          </mxGeometry>
        </mxCell>
        <mxCell id="DVC3D0L8lzgn9RZK1v0j-12" value="Prop / State" style="rounded=0;whiteSpace=wrap;html=1;" vertex="1" parent="1">
          <mxGeometry x="203" y="395" width="120" height="40" as="geometry" />
        </mxCell>
        <mxCell id="DVC3D0L8lzgn9RZK1v0j-14" value="" style="edgeStyle=orthogonalEdgeStyle;rounded=0;orthogonalLoop=1;jettySize=auto;html=1;exitX=0.5;exitY=0.5;exitDx=0;exitDy=0;exitPerimeter=0;" edge="1" parent="1" source="DVC3D0L8lzgn9RZK1v0j-13" target="DVC3D0L8lzgn9RZK1v0j-10">
          <mxGeometry x="-0.4054" relative="1" as="geometry">
            <mxPoint as="offset" />
          </mxGeometry>
        </mxCell>
        <mxCell id="DVC3D0L8lzgn9RZK1v0j-13" value="Users" style="shape=umlActor;verticalLabelPosition=bottom;verticalAlign=top;html=1;outlineConnect=0;" vertex="1" parent="1">
          <mxGeometry y="280" width="30" height="60" as="geometry" />
        </mxCell>
        <mxCell id="DVC3D0L8lzgn9RZK1v0j-44" style="edgeStyle=orthogonalEdgeStyle;rounded=0;orthogonalLoop=1;jettySize=auto;html=1;entryX=0;entryY=0.75;entryDx=0;entryDy=0;" edge="1" parent="1" source="DVC3D0L8lzgn9RZK1v0j-16" target="DVC3D0L8lzgn9RZK1v0j-10">
          <mxGeometry relative="1" as="geometry">
            <Array as="points">
              <mxPoint x="150" y="325" />
            </Array>
          </mxGeometry>
        </mxCell>
        <mxCell id="DVC3D0L8lzgn9RZK1v0j-16" value="Context" style="rounded=0;whiteSpace=wrap;html=1;" vertex="1" parent="1">
          <mxGeometry x="140" y="500" width="120" height="30" as="geometry" />
        </mxCell>
        <mxCell id="DVC3D0L8lzgn9RZK1v0j-24" style="edgeStyle=orthogonalEdgeStyle;rounded=0;orthogonalLoop=1;jettySize=auto;html=1;" edge="1" parent="1" source="DVC3D0L8lzgn9RZK1v0j-18" target="DVC3D0L8lzgn9RZK1v0j-19">
          <mxGeometry relative="1" as="geometry" />
        </mxCell>
        <mxCell id="DVC3D0L8lzgn9RZK1v0j-18" value="Store" style="rounded=0;whiteSpace=wrap;html=1;" vertex="1" parent="1">
          <mxGeometry x="549" y="248" width="80" height="32" as="geometry" />
        </mxCell>
        <mxCell id="DVC3D0L8lzgn9RZK1v0j-19" value="Action" style="rounded=0;whiteSpace=wrap;html=1;" vertex="1" parent="1">
          <mxGeometry x="549" y="332" width="80" height="32" as="geometry" />
        </mxCell>
        <mxCell id="DVC3D0L8lzgn9RZK1v0j-28" style="edgeStyle=orthogonalEdgeStyle;rounded=0;orthogonalLoop=1;jettySize=auto;html=1;dashed=1;" edge="1" parent="1" source="DVC3D0L8lzgn9RZK1v0j-20" target="DVC3D0L8lzgn9RZK1v0j-12">
          <mxGeometry relative="1" as="geometry">
            <mxPoint x="286" y="420" as="targetPoint" />
            <Array as="points">
              <mxPoint x="418" y="466" />
              <mxPoint x="418" y="420" />
            </Array>
          </mxGeometry>
        </mxCell>
        <mxCell id="DVC3D0L8lzgn9RZK1v0j-20" value="State" style="rounded=0;whiteSpace=wrap;html=1;" vertex="1" parent="1">
          <mxGeometry x="549" y="447" width="80" height="32" as="geometry" />
        </mxCell>
        <mxCell id="DVC3D0L8lzgn9RZK1v0j-27" style="edgeStyle=orthogonalEdgeStyle;rounded=0;orthogonalLoop=1;jettySize=auto;html=1;exitX=0;exitY=0.5;exitDx=0;exitDy=0;entryX=0.5;entryY=0;entryDx=0;entryDy=0;" edge="1" parent="1" source="DVC3D0L8lzgn9RZK1v0j-21" target="DVC3D0L8lzgn9RZK1v0j-20">
          <mxGeometry relative="1" as="geometry">
            <Array as="points">
              <mxPoint x="680" y="410" />
              <mxPoint x="589" y="410" />
            </Array>
          </mxGeometry>
        </mxCell>
        <mxCell id="DVC3D0L8lzgn9RZK1v0j-32" style="edgeStyle=orthogonalEdgeStyle;rounded=0;orthogonalLoop=1;jettySize=auto;html=1;entryX=1;entryY=0.3;entryDx=0;entryDy=0;exitX=0.093;exitY=1.002;exitDx=0;exitDy=0;exitPerimeter=0;" edge="1" parent="1" source="DVC3D0L8lzgn9RZK1v0j-21" target="DVC3D0L8lzgn9RZK1v0j-31">
          <mxGeometry relative="1" as="geometry">
            <mxPoint x="692" y="479" as="sourcePoint" />
            <Array as="points">
              <mxPoint x="690" y="480" />
              <mxPoint x="690" y="521" />
            </Array>
          </mxGeometry>
        </mxCell>
        <mxCell id="DVC3D0L8lzgn9RZK1v0j-40" style="rounded=0;orthogonalLoop=1;jettySize=auto;html=1;exitX=0.474;exitY=0.996;exitDx=0;exitDy=0;entryX=0.291;entryY=0.014;entryDx=0;entryDy=0;entryPerimeter=0;exitPerimeter=0;" edge="1" parent="1" source="DVC3D0L8lzgn9RZK1v0j-21">
          <mxGeometry relative="1" as="geometry">
            <mxPoint x="722.3100000000001" y="480" as="sourcePoint" />
            <mxPoint x="717.6800000000001" y="670.4200000000001" as="targetPoint" />
          </mxGeometry>
        </mxCell>
        <mxCell id="DVC3D0L8lzgn9RZK1v0j-43" style="rounded=0;orthogonalLoop=1;jettySize=auto;html=1;exitX=-0.021;exitY=0.433;exitDx=0;exitDy=0;dashed=1;exitPerimeter=0;" edge="1" parent="1" source="DVC3D0L8lzgn9RZK1v0j-21" target="DVC3D0L8lzgn9RZK1v0j-19">
          <mxGeometry relative="1" as="geometry" />
        </mxCell>
        <mxCell id="DVC3D0L8lzgn9RZK1v0j-21" value="Middleware" style="rounded=0;whiteSpace=wrap;html=1;" vertex="1" parent="1">
          <mxGeometry x="680" y="248" width="80" height="232" as="geometry" />
        </mxCell>
        <mxCell id="DVC3D0L8lzgn9RZK1v0j-26" style="edgeStyle=orthogonalEdgeStyle;rounded=0;orthogonalLoop=1;jettySize=auto;html=1;" edge="1" parent="1" source="DVC3D0L8lzgn9RZK1v0j-19">
          <mxGeometry relative="1" as="geometry">
            <mxPoint x="680" y="390" as="targetPoint" />
            <Array as="points">
              <mxPoint x="589" y="390" />
              <mxPoint x="680" y="390" />
            </Array>
          </mxGeometry>
        </mxCell>
        <mxCell id="DVC3D0L8lzgn9RZK1v0j-34" style="edgeStyle=orthogonalEdgeStyle;rounded=0;orthogonalLoop=1;jettySize=auto;html=1;exitX=1;exitY=0.7;exitDx=0;exitDy=0;entryX=0.5;entryY=1;entryDx=0;entryDy=0;" edge="1" parent="1">
          <mxGeometry relative="1" as="geometry">
            <mxPoint x="600" y="550.0000000000001" as="sourcePoint" />
            <mxPoint x="700" y="481" as="targetPoint" />
            <Array as="points">
              <mxPoint x="700" y="550" />
            </Array>
          </mxGeometry>
        </mxCell>
        <mxCell id="DVC3D0L8lzgn9RZK1v0j-31" value="Local Storage" style="shape=datastore;whiteSpace=wrap;html=1;" vertex="1" parent="1">
          <mxGeometry x="558" y="500" width="62" height="70" as="geometry" />
        </mxCell>
        <mxCell id="DVC3D0L8lzgn9RZK1v0j-36" value="StompJS" style="rounded=0;whiteSpace=wrap;html=1;" vertex="1" parent="1">
          <mxGeometry x="695" y="670" width="70" height="30" as="geometry" />
        </mxCell>
        <mxCell id="DVC3D0L8lzgn9RZK1v0j-41" style="edgeStyle=orthogonalEdgeStyle;rounded=0;orthogonalLoop=1;jettySize=auto;html=1;entryX=0.905;entryY=1.004;entryDx=0;entryDy=0;entryPerimeter=0;dashed=1;" edge="1" parent="1">
          <mxGeometry relative="1" as="geometry">
            <mxPoint x="750" y="670" as="sourcePoint" />
            <mxPoint x="740.0000000000001" y="480.928" as="targetPoint" />
            <Array as="points">
              <mxPoint x="740" y="670" />
            </Array>
          </mxGeometry>
        </mxCell>
        <mxCell id="DVC3D0L8lzgn9RZK1v0j-46" value="TanStack Query" style="rounded=0;whiteSpace=wrap;html=1;" vertex="1" parent="1">
          <mxGeometry x="240" y="670" width="97" height="30" as="geometry" />
        </mxCell>
        <mxCell id="DVC3D0L8lzgn9RZK1v0j-48" style="edgeStyle=orthogonalEdgeStyle;rounded=0;orthogonalLoop=1;jettySize=auto;html=1;entryX=0.841;entryY=1.002;entryDx=0;entryDy=0;entryPerimeter=0;dashed=1;" edge="1" parent="1" target="DVC3D0L8lzgn9RZK1v0j-12">
          <mxGeometry relative="1" as="geometry">
            <mxPoint x="310" y="670" as="sourcePoint" />
            <Array as="points">
              <mxPoint x="304" y="670" />
            </Array>
          </mxGeometry>
        </mxCell>
      </root>
    </mxGraphModel>
  </diagram>
</mxfile>
